<svg width="24" height="24" viewBox="0 0 24 24" fill="none" xmlns="http://www.w3.org/2000/svg">
<g clip-path="url(#clip0_1_40)">
<path d="M19.8368 19.5918C20.2425 19.5918 20.5715 19.2629 20.5715 18.8571V16.9679C20.5715 16.7043 20.4302 16.4608 20.2013 16.3301L15.1837 13.4629V9.79594H18.1225V10.5306C18.1225 10.9364 18.4514 11.2653 18.8572 11.2653C19.2629 11.2653 19.5919 10.9364 19.5919 10.5306V8.08165C19.5919 7.81799 19.4506 7.57456 19.2217 7.44378L15.1837 5.13638V2.2041C15.1837 1.94602 15.0482 1.7069 14.8269 1.57412L12.3779 0.104716C12.1453 -0.0349257 11.8546 -0.0349257 11.6219 0.104716L9.17294 1.57412C8.95165 1.7069 8.81622 1.94602 8.81622 2.2041V5.13633L4.77821 7.44373C4.54928 7.57451 4.40802 7.81799 4.40802 8.0816V10.5306C4.40802 10.9363 4.73697 11.2653 5.14272 11.2653C5.54847 11.2653 5.87742 10.9363 5.87742 10.5306V9.7959H8.81622V13.4628L3.79866 16.3301C3.56973 16.4608 3.42847 16.7043 3.42847 16.9679V18.8571C3.42847 19.2629 3.75742 19.5918 4.16317 19.5918C4.56892 19.5918 4.89787 19.2629 4.89787 18.8571V18.1224H8.81627V18.7012L7.11431 22.5306H4.16317C3.75742 22.5306 3.42847 22.8595 3.42847 23.2653C3.42847 23.671 3.75742 24 4.16317 24H19.8368C20.2425 24 20.5715 23.671 20.5715 23.2653C20.5715 22.8595 20.2425 22.5306 19.8368 22.5306H16.8856L15.1837 18.7012V18.1224H19.1021V18.8571C19.1021 19.2629 19.431 19.5918 19.8368 19.5918ZM15.1837 6.82869L17.8049 8.32655H15.1837V6.82869ZM10.2857 2.62003L12 1.59145L13.7143 2.62003V4.29667L12.3645 3.52538C12.2515 3.46082 12.1257 3.42855 12 3.42855C11.8742 3.42855 11.7484 3.46082 11.6355 3.52538L10.2857 4.29667V2.62003ZM10.2857 5.98907L12 5.00947L13.7143 5.98907V8.32655H10.2857V5.98907ZM10.2857 9.79594H13.7143V12.6232L12.3645 11.8519C12.2515 11.7874 12.1257 11.7551 12 11.7551C11.8742 11.7551 11.7484 11.7874 11.6355 11.8519L10.2857 12.6232V9.79594ZM10.2857 14.3156L12 13.336L13.7143 14.3156V16.653H10.2857V14.3156ZM6.195 8.32655L8.81627 6.82869V8.32655H6.195ZM6.19505 16.653L8.81627 15.1552V16.653H6.19505ZM15.2777 22.5306H8.72232L10.2223 19.1555C10.2641 19.0616 10.2857 18.9599 10.2857 18.8571V18.1224H13.7143V18.8571C13.7143 18.96 13.7358 19.0616 13.7776 19.1555L15.2777 22.5306ZM15.1837 16.653V15.1552L17.8049 16.653H15.1837Z" fill="white"/>
</g>
<defs>
<clipPath id="clip0_1_40">
<rect width="24" height="24" fill="white"/>
</clipPath>
</defs>
</svg>
